<?xml version="1.0" encoding="UTF-8"?><svg xmlns="http://www.w3.org/2000/svg" viewBox="0 0 462.66 51.55"><defs><style>.d{fill:#f8a912;}.e{fill:#ede300;}.f{fill:#fff;}.g{fill:#e30613;}.h{fill:#1d1d1b;}.i{fill:#45ac34;}.j{fill:#8a4292;}.k{fill:#274395;}</style></defs><g id="a"/><g id="b"><g id="c"><g><path class="d" d="M274.46,22.59l178.9-6.45-5.75,3.94-172.96,4.09"/><path class="e" d="M447.8,19.96l-6.91,4.27-167.83-.06"/><path class="k" d="M435.78,27.1l-5.55,3.56-157.17-6.49"/><path class="i" d="M441.2,24.04l-5.59,3.19-162.28-3.05"/><polyline class="j" points="430.58 30.42 424.39 34.69 272.37 24.13"/><path class="g" d="M273.89,21.11l188.77-11.57-9.3,6.59-181.6,6.53,2.75,.16"/><g><path class="h" d="M74.51,3.96c2.35,2.3,3.53,5.4,3.53,9.29,0,.48-.05,1.25-.14,2.3-.53,4.46-2.36,8.05-5.51,10.76-3.14,2.71-7,4.07-11.56,4.07h-11.16c-.24,0-.36,.12-.36,.36l-2.38,19.37c-.05,.24-.17,.44-.36,.61-.19,.17-.41,.25-.65,.25h-6.41c-.24,0-.43-.08-.58-.25-.14-.17-.19-.37-.14-.61L44.78,1.37c.05-.24,.16-.44,.32-.61,.17-.17,.37-.25,.61-.25h19.22c4.03,0,7.22,1.15,9.58,3.46Zm-7.2,17.1c1.68-1.7,2.52-3.88,2.52-6.52,0-2.11-.62-3.78-1.87-5-1.25-1.22-2.95-1.84-5.11-1.84h-10.37c-.19,0-.34,.12-.43,.36l-1.87,15.19c0,.24,.12,.36,.36,.36h10.37c2.59,0,4.73-.85,6.41-2.56Z"/><path class="h" d="M109,50.33l-6.7-20.74c0-.1-.04-.17-.11-.22-.07-.05-.16-.07-.25-.07h-8.35c-.19,0-.34,.12-.43,.36l-2.52,20.45c0,.24-.1,.44-.29,.61-.19,.17-.41,.25-.65,.25h-6.41c-.24,0-.43-.08-.58-.25-.14-.17-.19-.37-.14-.61L88.55,1.44c.05-.24,.16-.44,.32-.61,.17-.17,.37-.25,.61-.25h19.22c3.89,0,6.98,1.13,9.29,3.38,2.3,2.26,3.46,5.26,3.46,9,0,.48-.05,1.25-.14,2.3-.38,3.31-1.55,6.13-3.49,8.46s-4.43,3.95-7.45,4.86c-.19,0-.29,.14-.29,.43l7.27,20.95c.05,.1,.07,.22,.07,.36,0,.43-.26,.65-.79,.65h-6.7c-.48,0-.79-.22-.94-.65ZM95.93,7.88c-.07,.07-.11,.16-.11,.25l-1.73,14.33c-.1,.24,0,.36,.29,.36h10.44c2.45,0,4.48-.8,6.08-2.41,1.61-1.61,2.41-3.66,2.41-6.16,0-1.97-.6-3.54-1.8-4.72-1.2-1.18-2.81-1.76-4.82-1.76h-10.51c-.1,0-.18,.04-.25,.11Z"/><path class="h" d="M127.36,50.72c-.14-.17-.19-.37-.14-.61L133.19,1.44c.05-.24,.16-.44,.32-.61,.17-.17,.37-.25,.61-.25h6.41c.24,0,.43,.08,.58,.25,.14,.17,.19,.37,.14,.61l-5.98,48.67c0,.24-.1,.44-.29,.61-.19,.17-.41,.25-.65,.25h-6.41c-.24,0-.43-.08-.58-.25Z"/><path class="h" d="M150.94,48.17c-2.9-2.25-4.36-5.3-4.36-9.14,0-.43,.05-1.08,.14-1.94l.22-1.8c.05-.24,.16-.44,.32-.61,.17-.17,.37-.25,.61-.25h6.26c.24,0,.43,.08,.58,.25,.14,.17,.19,.37,.14,.61l-.22,1.37-.07,.79c0,2.02,.88,3.67,2.63,4.97,1.75,1.3,4.16,1.94,7.24,1.94s5.35-.72,6.98-2.16c1.63-1.44,2.45-3.24,2.45-5.4,0-1.63-.74-2.98-2.23-4.03-1.49-1.06-4.13-2.38-7.92-3.96-2.88-1.15-5.23-2.23-7.06-3.24-1.82-1.01-3.35-2.33-4.57-3.96s-1.84-3.65-1.84-6.05c0-3.17,.78-5.93,2.34-8.28,1.56-2.35,3.72-4.15,6.48-5.4C161.83,.63,164.97,0,168.47,0,173.37,0,177.27,1.18,180.17,3.53c2.9,2.35,4.36,5.5,4.36,9.43,0,.38-.05,1.01-.14,1.87l-.14,1.22c-.05,.24-.16,.44-.32,.61-.17,.17-.37,.25-.61,.25h-6.34c-.24,0-.43-.08-.58-.25-.14-.17-.19-.37-.14-.61l.14-.79,.07-.86c0-2.06-.8-3.78-2.41-5.15-1.61-1.37-3.88-2.05-6.8-2.05s-4.98,.62-6.59,1.87c-1.61,1.25-2.41,3.02-2.41,5.33,0,1.2,.36,2.22,1.08,3.06,.72,.84,1.75,1.6,3.1,2.27,1.34,.67,3.41,1.56,6.19,2.66,2.93,1.2,5.28,2.28,7.06,3.24,1.78,.96,3.29,2.26,4.54,3.89,1.25,1.63,1.87,3.67,1.87,6.12,0,.34-.05,.94-.14,1.8-.53,4.32-2.48,7.75-5.87,10.3-3.38,2.54-7.76,3.82-13.14,3.82-5.09,0-9.08-1.13-11.99-3.38Z"/><path class="h" d="M228.88,.58h6.48c.24,0,.43,.08,.58,.25,.14,.17,.19,.37,.14,.61l-5.98,48.67c-.05,.24-.16,.44-.32,.61-.17,.17-.37,.25-.61,.25h-6.48c-.24,0-.43-.08-.58-.25-.14-.17-.19-.37-.14-.61l4.25-34.34c0-.14-.05-.24-.14-.29-.1-.05-.19,0-.29,.14l-10.44,13.82c-.24,.38-.58,.58-1.01,.58h-3.24c-.43,0-.72-.19-.86-.58l-7.13-13.75c-.05-.14-.13-.19-.25-.14s-.18,.14-.18,.29l-4.25,34.27c0,.24-.1,.44-.29,.61-.19,.17-.41,.25-.65,.25h-6.41c-.24,0-.43-.08-.58-.25-.14-.17-.19-.37-.14-.61L196.33,1.44c.05-.24,.16-.44,.32-.61s.37-.25,.61-.25h6.41c.48,0,.79,.19,.94,.58l9.22,17.78c.05,.1,.12,.14,.22,.14s.17-.05,.22-.14L227.87,1.15c.24-.38,.58-.58,1.01-.58Z"/><path class="h" d="M322.33,.83c.14,.17,.19,.37,.14,.61l-.72,5.54c-.05,.24-.16,.44-.32,.61s-.37,.25-.61,.25h-12.82c-.19,0-.34,.12-.43,.36l-5.11,41.9c-.05,.24-.16,.44-.32,.61s-.37,.25-.61,.25h-6.48c-.24,0-.43-.08-.58-.25-.14-.17-.19-.37-.14-.61l5.18-41.9c0-.24-.12-.36-.36-.36h-12.31c-.24,0-.43-.08-.58-.25-.14-.17-.19-.37-.14-.61l.65-5.54c.05-.24,.16-.44,.32-.61,.17-.17,.37-.25,.61-.25h34.06c.24,0,.43,.08,.58,.25Z"/><path class="h" d="M325.93,50.72c-.14-.17-.19-.37-.14-.61l5.98-48.67c.05-.24,.16-.44,.32-.61s.37-.25,.61-.25h6.41c.24,0,.43,.08,.58,.25,.14,.17,.19,.37,.14,.61l-5.98,48.67c0,.24-.1,.44-.29,.61-.19,.17-.41,.25-.65,.25h-6.41c-.24,0-.43-.08-.58-.25Z"/><path class="h" d="M350.67,47.66c-2.81-2.59-4.21-6.07-4.21-10.44,0-1.15,.05-2.02,.14-2.59l2.16-17.78c.38-3.36,1.46-6.31,3.24-8.86,1.78-2.54,4.08-4.51,6.91-5.9C361.74,.7,364.89,0,368.34,0c4.8,0,8.6,1.26,11.41,3.78,2.81,2.52,4.21,5.87,4.21,10.04,0,.53-.05,1.32-.14,2.38-.05,.24-.16,.44-.32,.61-.17,.17-.37,.25-.61,.25l-6.48,.36c-.53,0-.77-.26-.72-.79,.05-.33,.07-.84,.07-1.51,0-2.45-.73-4.38-2.2-5.8-1.46-1.42-3.49-2.12-6.08-2.12-2.83,0-5.21,.86-7.13,2.59-1.92,1.73-3.07,4.01-3.46,6.84l-2.23,18.36c-.05,.34-.07,.84-.07,1.51,0,2.4,.74,4.31,2.23,5.72,1.49,1.42,3.53,2.12,6.12,2.12,2.78,0,5.14-.85,7.06-2.56,1.92-1.7,3.07-3.97,3.46-6.8,0-.53,.31-.79,.94-.79l6.34,.29c.24,0,.44,.07,.61,.22,.17,.14,.23,.31,.18,.5-.38,3.26-1.46,6.13-3.24,8.6-1.78,2.47-4.07,4.38-6.88,5.72-2.81,1.34-5.94,2.02-9.4,2.02-4.75,0-8.53-1.3-11.34-3.89Z"/><path class="h" d="M393.72,48.17c-2.91-2.25-4.36-5.3-4.36-9.14,0-.43,.05-1.08,.14-1.94l.22-1.8c.05-.24,.16-.44,.32-.61s.37-.25,.61-.25h6.26c.24,0,.43,.08,.58,.25,.14,.17,.19,.37,.14,.61l-.22,1.37-.07,.79c0,2.02,.88,3.67,2.63,4.97,1.75,1.3,4.16,1.94,7.24,1.94s5.35-.72,6.98-2.16c1.63-1.44,2.45-3.24,2.45-5.4,0-1.63-.74-2.98-2.23-4.03-1.49-1.06-4.13-2.38-7.92-3.96-2.88-1.15-5.23-2.23-7.06-3.24s-3.35-2.33-4.57-3.96c-1.22-1.63-1.84-3.65-1.84-6.05,0-3.17,.78-5.93,2.34-8.28,1.56-2.35,3.72-4.15,6.48-5.4C404.62,.63,407.75,0,411.25,0c4.9,0,8.79,1.18,11.7,3.53,2.9,2.35,4.36,5.5,4.36,9.43,0,.38-.05,1.01-.14,1.87l-.14,1.22c-.05,.24-.16,.44-.32,.61-.17,.17-.37,.25-.61,.25h-6.34c-.24,0-.43-.08-.58-.25-.14-.17-.19-.37-.14-.61l.14-.79,.07-.86c0-2.06-.8-3.78-2.41-5.15-1.61-1.37-3.88-2.05-6.8-2.05s-4.98,.62-6.59,1.87c-1.61,1.25-2.41,3.02-2.41,5.33,0,1.2,.36,2.22,1.08,3.06,.72,.84,1.75,1.6,3.1,2.27,1.34,.67,3.41,1.56,6.19,2.66,2.93,1.2,5.28,2.28,7.06,3.24,1.78,.96,3.29,2.26,4.54,3.89s1.87,3.67,1.87,6.12c0,.34-.05,.94-.14,1.8-.53,4.32-2.48,7.75-5.87,10.3-3.38,2.54-7.76,3.82-13.14,3.82-5.09,0-9.08-1.13-11.99-3.38Z"/></g><g><polygon class="h" points="238.98 50.98 262.77 0 269.99 0 270.33 1.74 247.42 50.98 238.98 50.98"/><g><polygon class="f" points="246.99 50.48 269.8 1.6 279.46 50.48 246.99 50.48"/><path class="h" d="M269.6,3.2l9.25,46.78h-31.08L269.6,3.2m.39-3.2l-23.78,50.98h33.86L269.99,0h0Z"/></g></g><path class="f" d="M0,30.35s124.25-8.46,259.44-8.94l-1.32,2.58S71.83,25.31,0,30.35Z"/></g></g></g></svg>